<svg xmlns="http://www.w3.org/2000/svg" width="324" height="414" viewBox="0 0 324 414" fill="none"><g clip-path="url(#clip0_668_8)"><path d="M-214.983 114.6L195.364 332.627C204.41 337.434 214.988 338.449 224.782 335.451L288.593 315.921L-187.536 62.9424" stroke="#C89D52" stroke-width="2" stroke-miterlimit="10"></path><path d="M-181.755 52.0618L65.8767 183.634C74.9228 188.441 85.5014 189.456 95.2952 186.458L159.106 166.928L-154.308 0.403809" stroke="#C89D52" stroke-width="2" stroke-miterlimit="10"></path><path d="M-223.724 131.052L79.1735 291.989C84.4823 294.81 90.6935 295.405 96.4411 293.646L133.896 282.183L-207.614 100.73" stroke="#C89D52" stroke-width="2" stroke-miterlimit="10"></path><path d="M-238.785 159.398L108.781 344.068C112.195 345.882 116.187 346.268 119.882 345.133L143.955 337.765L-228.43 139.908" stroke="#C89D52" stroke-width="2" stroke-miterlimit="10"></path><path d="M-135.632 45.7946L211.934 230.465C215.348 232.279 219.34 232.664 223.036 231.53L247.109 224.162L-125.277 26.3047" stroke="#C89D52" stroke-width="2" stroke-miterlimit="10"></path><path d="M-202.039 90.238L169.158 287.464C178.738 292.554 189.947 293.629 200.323 290.454L267.914 269.767L-172.965 35.5176" stroke="#C89D52" stroke-width="2" stroke-miterlimit="10"></path></g><defs><clipPath id="clip0_668_8"><rect width="540.266" height="180.958" fill="white" transform="translate(-154.094) rotate(27.9828)"></rect></clipPath></defs></svg>